<svg xmlns="http://www.w3.org/2000/svg" viewBox="0 0 2115 2028"><defs><style>.cls-1{fill: rgba(250,250,250,0.7);}</style></defs><title>Паттерн</title><g id="Слой_3" data-name="Слой 3"><path class="cls-1" d="M326.64,427.59c50.78-14.72,106.22-8.34,153.47,14.82a251.14,251.14,0,0,1,59.38,40.86q6.51,6,12.61,12.43c3.8,4,7.23,8.75,11.69,12,4.64,3.43,9.58,3.09,14.62.7,5.78-2.74,11.34-6,16.94-9.13,41.8-23,87.44-48.86,137-39.17a88.93,88.93,0,0,1,29.74,11.29,72.72,72.72,0,0,1,12.4,9.62c4.49,4.35,8.94,9.48,10.48,15.68,1.37,5.53-.42,12-5.55,15-5.38,3.18-11.53-1-17.32-.25-6.09.77-11.49,4.19-17.61,4.84-5.1.55-10.13-.82-14.77-2.85-8.83-3.85-16.78-9.92-26.26-12.2-10.87-2.61-20.34,2.1-29,8.26-4.65,3.3-9.16,6.79-14.13,9.61a78.82,78.82,0,0,1-16.66,7.06,82.52,82.52,0,0,1-35.45,2.53,80.32,80.32,0,0,1-16.56-4.35l-.32,2.36c21.27-.43,42,5.07,62.91,7.82,10.25,1.34,20.65,2,30.95.92,9.54-1,18.81-3.52,27.92-6.45,18.51-5.93,37.24-14.08,57.06-13.44,5.08.16,10.69.63,15.22,3.12,4.21,2.3,6.88,6.42,8.86,10.67,4.27,9.22,5.65,19.44,6.63,29.46,1,9.78,1.54,19.66,3.89,29.23,2.42,9.83,7.43,19,9,29a24.71,24.71,0,0,1-2.06,15.2,30.19,30.19,0,0,1-9.4,10.35c-8,5.73-17.57,9-27.22,10.5a99.76,99.76,0,0,1-29.78,0c-9-1.31-17.92-3.85-25.76-8.47-8.36-4.93-14.34-12.12-18.74-20.68s-7.43-17.38-11.81-25.78a150,150,0,0,0-74.29-68.13q-5.88-2.49-12-4.45c-1.3-.42-1.94,1.2-1.22,2.09,17.93,22,36.18,44.2,58.14,62.39a174.16,174.16,0,0,0,34.54,22.7c12.31,6,25.5,9.29,38.27,14.1,6.41,2.41,12.74,5.39,18.12,9.69a43.66,43.66,0,0,1,13.13,18.22c5.58,14.1,5.91,30.73-5.5,42-10.44,10.32-26,15.06-40,18.11-15.62,3.41-31.65,4.3-47.59,4.55-16.15.26-32.31-.17-48.45.5a257,257,0,0,0-48.77,6.58q-6.17,1.47-12.25,3.26l1.57.89c-2-13.62-3.21-28.38,2-41.47,5.55-14,19-20.87,29.22-31,17.67-17.51,28.35-41.6,30.3-66.33a98.07,98.07,0,0,0-5.57-41.52c-.4-1.09-2.21-1.36-2.49,0-2.63,12.8-15.46,19.11-25.91,24.81-5.68,3.1-11.37,6.24-16.39,10.37a64.58,64.58,0,0,0-14,16.43c-18.14,29.92-13,65.6-18.64,98.63-2.61,15.2-10.05,32.46-26.91,35.78-15.86,3.13-27.38-11.71-31.47-25.2-10.77-35.52,10-70.59,15.77-105,1.44-8.64,1.69-17.63,4.86-25.9a43.26,43.26,0,0,1,11.38-16.26c10.17-9.3,23.66-14.52,36.93-17.54,15.14-3.46,31.25-3,43.83-13.45,6-5,10.7-11.31,15-17.72a186.2,186.2,0,0,0,12.74-22,189.19,189.19,0,0,0,15.82-46.56,170.32,170.32,0,0,0,3.14-23.9c.42-7.56.11-15.47-2.64-22.61s-7.8-12.41-14-16.61a136.73,136.73,0,0,0-22.28-11.79,172.29,172.29,0,0,0-48.42-13.17c-6.67-.78-14-.93-20.1,2.27-5.8,3-8.9,8.83-9.43,15.21-.59,7,1.39,14,3,20.77a140.08,140.08,0,0,1,3.74,28c.15,4.7.07,9.41-.25,14.1-.28,4.23-.93,8.46-.77,12.71a21.05,21.05,0,0,0,3.2,10.81,51.72,51.72,0,0,0,7.48,8.44q19.2,19,36.69,39.56,8.58,10.11,16.72,20.56l1.75-1.74A141.47,141.47,0,0,0,483.86,493.4c-10.24,1.32-28.47,3.56-26.36,17.94.68,4.67,2.11,9.3,3.21,13.89l3.37,14q3.48,14.47,6.95,28.94a1.32,1.32,0,0,0,2.18.58l47.71-39.69,11.56-9.61c3.88-3.22,7.64-6.9,11.85-9.69,4.81-3.2,9.06-.61,13.27,2.26,3.19,2.17,6.25,4.52,9.33,6.85,6.1,4.62,12.31,9.3,19.48,12.14a30.56,30.56,0,0,0,22.55.14c8.11-3.08,15.54-7.91,23.15-12,7.88-4.28,16.08-8.23,24.95-9.92,14.34-2.73,34.32,3.47,36.56,20l2.09-1.6c-18.78-11.16-41.21-17.41-62.94-12.54a61.92,61.92,0,0,0-26.69,13c-2.85,2.43-7.44,6-5.77,10.31s7.34,5.93,11.28,6.67c10.71,2,21.2-2,30.63-6.74,5.45-2.72,10.78-5.71,16.44-8a81.07,81.07,0,0,1,17.43-4.82c8.88-1.43,27.95-3.76,30.25,8.7,1,5.24-3.42,8.41-8.16,8.47-4.41,0-8.82-1.46-12.85-3.13a137,137,0,0,0-36.63-10A129,129,0,0,0,610.12,531a1.38,1.38,0,0,0-1,1c-2.27,7.54.4,15.45,5.34,21.32,5.67,6.74,13.92,10.72,21.7,14.48a394,394,0,0,0,54.72,21.6c4.35,1.35,13.83,4,15.67-2.5.75-2.62-2.42-5.35-4.28-6.8a24,24,0,0,0-8.49-4c-6.87-1.9-14.08-1.83-21.12-2.65a86.38,86.38,0,0,1-23.35-6.19,87.47,87.47,0,0,1-40.64-34.55c-1-1.55-3.39-.13-2.44,1.43,15,24.38,41.58,40.12,70,42.45,6.52.53,13.35.7,19.53,3.08a17.31,17.31,0,0,1,7.57,5.52c2.16,2.74-3.85,3.24-5.53,3.1-4-.34-8.08-2.12-11.88-3.36-4.24-1.39-8.45-2.84-12.64-4.38q-13-4.76-25.69-10.44c-8.52-3.83-17.55-7.59-25.11-13.14s-13.56-14.58-10.67-24.19l-1,1a125.71,125.71,0,0,1,68.58,6.44c7.16,2.81,16.4,7.84,24.18,4.27,8.17-3.76,6.41-14.49,0-19-4.05-2.83-9.21-3.51-14-3.59a81,81,0,0,0-16.87,1.54c-11.66,2.26-21.73,7.59-32.25,12.81-9.82,4.87-21.82,9.36-32.65,5-2.31-.94-6.18-2.86-4.67-5.94,1.16-2.37,4.1-4.46,6.12-6.08a56.3,56.3,0,0,1,12.86-7.66c23.86-10.32,50.58-4.13,72.18,8.62a1.44,1.44,0,0,0,2.09-1.6C694.45,514.39,680,506.78,667,505.79c-17.52-1.33-33.4,9.4-48.08,17.42-8.26,4.51-16.86,8.84-26.52,6.77-7.9-1.69-14.75-6.49-21.12-11.22-3.42-2.54-6.76-5.16-10.22-7.63-3.27-2.33-6.88-5.18-11-5.69s-7.28,1.91-10.24,4.35c-4.23,3.5-8.44,7-12.66,10.55L471.37,566.9l2.18.58q-5.7-23.57-11.37-47.13c-.92-3.82-2.57-8.13-2.31-12.09.22-3.38,2.45-5.86,5.27-7.51,5.18-3,11.69-3.82,17.54-4.64A139.71,139.71,0,0,1,559,507.19a133,133,0,0,1,36.23,24c1.19,1.12,2.7-.52,1.75-1.74q-16.62-21.26-35-41.06-9-9.72-18.47-19c-3-2.94-6.2-5.88-8.12-9.66-2-4-2-8.62-1.73-13,.67-9.13,1.25-18.12.59-27.28a159.13,159.13,0,0,0-4.17-25.56c-1.65-6.9-3.59-14.59-1.51-21.61,2.34-7.89,9.88-11.09,17.52-11.41,8-.32,16.12,1.33,23.87,3a172.82,172.82,0,0,1,24.7,7.31,168.34,168.34,0,0,1,23.73,11.17c7.05,4,13.9,8.74,17.63,16.18,3.64,7.25,4.08,15.69,3.69,23.65A164.85,164.85,0,0,1,636.47,447a186.58,186.58,0,0,1-29.14,68.44c-4.53,6.58-9.61,13.11-16.23,17.72-7,4.87-15.29,6.67-23.59,7.94a190.4,190.4,0,0,0-21.58,4.09c-12.57,3.45-25.1,9.08-34.48,18.35A45.71,45.71,0,0,0,501.07,579c-3.2,8-3.56,16.74-4.87,25.18-5.28,34.1-24.83,67.33-17.23,102.66,2.8,13,10.32,27,23.75,31.43,13.74,4.52,27.56-4.55,34.21-16.28,8.25-14.55,8.6-32.8,9.63-49.06,1.1-17.24,2-34.73,7.3-51.29,4.61-14.27,12.59-28,25.09-36.71,10.22-7.13,22.58-11.3,31.69-20a26.37,26.37,0,0,0,8-13.83h-2.49c8.86,24.09,7.26,51.31-3.1,74.68a100.26,100.26,0,0,1-21.72,31.41c-10,9.65-22.63,16.43-28.41,29.68-6.09,14-4.79,29.83-2.66,44.52a1.3,1.3,0,0,0,1.57.89,245.85,245.85,0,0,1,52-9.32c16.41-1.14,32.86-.82,49.29-.92,16.08-.09,32.22-.56,48.11-3.23,14.7-2.47,30.45-6.61,42.81-15.29,5.44-3.82,10.23-8.72,13-14.81,3-6.53,3.57-13.84,2.65-20.9-1.86-14.28-9-27.68-21.08-35.74-11.45-7.61-25.21-10.63-38-15.11a152.73,152.73,0,0,1-38.33-20.27c-23.92-17.14-43.43-39.64-62-62.25q-3.48-4.23-6.94-8.5L602,528a148.15,148.15,0,0,1,82.72,67.54c9.15,16.27,13.22,36.32,28.85,48,14.87,11.15,35.43,13.93,53.52,12.77a76.8,76.8,0,0,0,28.08-6.87c7.95-3.78,15.88-9.49,19.38-17.85,3.9-9.3,1-19.33-2.24-28.34-1.79-5-3.76-9.93-5.08-15.07a112.48,112.48,0,0,1-2.71-15.89c-1.09-9.89-1.52-19.89-3.56-29.66-1.79-8.57-4.85-19-12.11-24.57s-18.82-5.5-27.61-4.7c-9.91.9-19.54,3.57-29,6.63s-19,6.6-28.67,9.28a109.57,109.57,0,0,1-31.75,4.24c-21.78-.45-42.93-6.56-64.55-8.61a138.41,138.41,0,0,0-16-.63,1.21,1.21,0,0,0-.32,2.36c22.06,8.37,47.55,6.49,68.35-4.54,10.43-5.53,19.05-15.14,30.54-18.56,11-3.28,21,2.35,30.44,7.4,8.61,4.62,17.85,9.08,27.83,6.56,6.44-1.63,12.52-5.41,19.38-4.09,5.08,1,9.53,2.44,14-1a15.27,15.27,0,0,0,5.71-12c0-5.68-3-10.88-6.42-15.2a72.08,72.08,0,0,0-25.09-19.44c-19.4-9.36-41.86-11.3-63-8.48-25.29,3.37-49,14-71.43,25.71-11.89,6.22-23.55,12.87-35.33,19.29-5.85,3.18-13.05,8.69-19.76,4.83-5.08-2.93-8.82-8.56-12.81-12.75A259.09,259.09,0,0,0,496,448.87c-45-26.08-98.54-37.22-149.95-27.73a196,196,0,0,0-19.84,4.74.89.89,0,0,0,.48,1.71Z"/><path class="cls-1" d="M1709.49,1562.82a1364.32,1364.32,0,0,1-122-103.27,1340.59,1340.59,0,0,1-108.41-116.41c-17.48-21.16-34.31-43-48.26-66.68a367.31,367.31,0,0,1-32.37-73,560.24,560.24,0,0,1-18.68-77.29c-4.52-26-8.87-52.78-7.8-79.29a127.51,127.51,0,0,1,7.21-38.92c2.18-5.91,4.82-13.68,11.39-15.91,6.17-2.1,13.11.92,18.56,3.7,12.76,6.5,25.25,13.61,37.86,20.42l38.81,21,18.92,10.21-.25-1.92a456,456,0,0,0-80,92.34q-8.49,13-16.08,26.55c-2.33,4.17-4.46,8.77-8.08,12-4.52,4-10.68,4-16.35,3.22-21.21-3.1-41.32-11.51-61.67-17.89-18-5.66-36.56-9.86-55.58-8.3-15.9,1.31-32,6.41-43.9,17.44-14,13-18.35,31.93-20.4,50.21a257.31,257.31,0,0,0-.84,51.61c2.87,32,13.08,65.27,37.74,87.21a94.64,94.64,0,0,0,9.23,7.22,1.12,1.12,0,0,0,1.32-.17c10.79-9.26,15.15-23,18.43-36.41,3.46-14.13,6.5-28,13.69-40.82,13.8-24.59,37.55-43.22,64.31-51.79a103.8,103.8,0,0,1,47.34-4l-.3-2.23c-33.63,16.89-55,52-60.12,88.63-5.51,39.27,8.77,78.14,33.89,108.15a180.16,180.16,0,0,0,52.62,42.66,1.27,1.27,0,0,0,1.89-1.08,1201.92,1201.92,0,0,0,10.25-165.5q-.18-23.7-1.29-47.39l-2.49.33c9.36,23.11,36,32.9,57.5,41.18a428.75,428.75,0,0,0,135.52,28.31,1.28,1.28,0,0,0,1.27-1.26L1609.52,1179c-.76-8.62-1-18.83-10.48-22.34-4.46-1.64-9.52-1.58-14.2-1.55a123.71,123.71,0,0,0-15.5,1.09c-20.46,2.68-40,10.16-58.19,19.69-18.92,9.9-36.19,22.24-53.7,34.38-17,11.8-35.91,23.42-57.3,23.51-19.63.08-37.66-9.56-52.25-22-15.52-13.28-27.94-29.86-38.82-47a308.12,308.12,0,0,1-44.19-118.23q-1.22-8.07-2-16.2l-1.64,1.26c16.78,2.78,34.67-16.06,49.81-2.47,5.9,5.29,9.3,12.89,12.82,19.83a90.2,90.2,0,0,0,14.25,21.08c6.48,7,13.78,13.32,19.41,21.06,6.17,8.5,9,18.33,10.58,28.6s2.41,20.54,4.49,30.7a205.62,205.62,0,0,0,8.32,29.41,209.6,209.6,0,0,0,33,58.77c.81,1,2.69-.08,2.22-1.29-9.68-25,4.26-51.23,22.71-67.89,9.92-9,21.3-16.1,32.74-22.92,12.7-7.57,25.46-15,38.2-22.54l45.16-26.63-2-1.54c-6,40.61-14,88.76-52.48,111.87-19.83,11.92-43,10.49-65.25,11.15a271,271,0,0,0-68,10.78c-19.58,5.74-39.23,13.35-56,25.15-14.29,10-27.37,24.1-31.91,41.39a56.59,56.59,0,0,0,6.64,43.74,41.12,41.12,0,0,0,15.33,14.59c3,1.6,6.76,3.27,10.21,3.53,2,.14,2.76-1.41,4-2.79,1.85-2,3.62-4.15,5.34-6.3,25.09-31.5,37.68-76.07,75.25-96.08a65.84,65.84,0,0,1,13.45-5.35,1.38,1.38,0,0,0,.6-2.28c-14.65-13.84-34.87-17.83-53.76-22.58-18.34-4.61-37.88-11.75-48.81-28.3a33.77,33.77,0,0,1-5.12-12.12c-.86-4.36-1.08-10.06,1.07-14.11,3-5.67,10.45-3.34,15.26-1.65a44.24,44.24,0,0,1,12.69,7,45.93,45.93,0,0,1,15.69,23.06c2.7,9.4,1.29,19.49,7.45,27.72,10.89,14.54,31.74,16,45.28,27.23,1.08.89,3.25.09,2.64-1.54a754.14,754.14,0,0,0-49-105.59,1.63,1.63,0,0,0-1.39-.8c-6.17-.07-11,6.48-8.77,12.33a1.63,1.63,0,0,0,2.7.72c4.74-5.49,12.92-5.17,18.86-1.83,7,3.92,10.65,11.89,13.32,19.07,6.59,17.68,12.35,35.71,18.5,53.56l10.83,31.44,1.6-2.1c-15.57-1.43-26.95,13.54-28.76,27.69-1.12,8.86,1.5,17.89,5.19,25.86a118.23,118.23,0,0,0,15.38,24.59c4.78,5.84,13.58,12.65,20.74,6.58a1.61,1.61,0,0,0,.43-1.61c-5.37-14.24-16.28-25.06-23.69-38.12-6-10.66-8.05-23.84-1.9-35,3-5.43,7.92-9.22,14.27-9.41,2.08-.07,2.09-3.32,0-3.25-12.28.37-19.24,11.48-20.85,22.61a38.13,38.13,0,0,0,1.64,18.29c2.75,7.63,7.58,14.42,12.29,20.95,5.66,7.85,11.59,15.67,15,24.81l.43-1.62c-4,3.42-9.23.07-12.48-2.85-3.52-3.15-6.06-7.16-8.68-11.05-5.82-8.63-11.37-17.8-13.68-28.06-2-9-.89-18,4.09-25.77,4.53-7.08,11.91-12.11,20.55-11.32a1.67,1.67,0,0,0,1.6-2.1l-21.33-61.82c-3.19-9.24-6-18.75-9.88-27.73-3.08-7.14-7.65-14.23-15-17.45-6.88-3-15.6-2.63-20.76,3.35l2.71.71a6.12,6.12,0,0,1,5.65-8.24l-1.4-.8a747.92,747.92,0,0,1,48.77,104.8l2.64-1.53c-6.77-5.59-14.86-9-22.83-12.46-7.55-3.31-15.68-6.78-21.19-13.17-7.34-8.5-5.23-20.19-8.74-30.21a49.41,49.41,0,0,0-16.4-22.56A48.09,48.09,0,0,0,1321,1164c-4.21-1.65-9.53-3.38-14.08-2.3-9.36,2.21-8.85,15.77-7,23,4.85,18.45,23.83,30.56,40.82,36.37,22.67,7.77,49,8.7,67.35,26l.6-2.28c-39,10.88-56.9,50.83-76.32,82.37-6.24,10.13-13,19.91-21.27,28.53l1.34-.35c-24.2-4.31-35.37-32.23-31.49-54.39,4.92-28,31.53-46.49,55.69-57.37,31.08-14,65.54-21.17,99.54-22.08,16.61-.45,33.66.36,49.76-4.49,13.43-4,25.19-12.24,34.52-22.63,24.11-26.86,30-63.48,35-97.92a1.38,1.38,0,0,0-2-1.53c-27.51,16.23-55.07,32.37-82.52,48.7-22.25,13.24-45.46,28.58-55.79,53.43-5.4,13-6.85,27.63-1.7,40.9l2.23-1.29a205.53,205.53,0,0,1-40.15-84.62c-2.2-10.13-3.21-20.37-4.64-30.62-1.41-10.05-3.69-20.1-9.22-28.76-5-7.89-11.93-14.3-18.41-20.94a89.68,89.68,0,0,1-16-21.71c-3.59-7-6.81-14.34-12-20.28a23.32,23.32,0,0,0-22.56-7.8c-10.3,1.91-20,8.91-30.83,7.12-.75-.13-1.74.33-1.65,1.25a310.55,310.55,0,0,0,36.56,118.87c9.8,17.9,21.26,35.3,35,50.49,12.47,13.83,27.49,26.29,45.21,32.65,18.45,6.63,37.57,4.44,55.12-3.79,19-8.93,35.39-22.69,52.9-34.14,18-11.75,36.92-22.37,57.33-29.2a142.38,142.38,0,0,1,31.31-6.91,119.77,119.77,0,0,1,16.07-.52c5.14.2,11.07.94,14.09,5.68,2.84,4.48,2.71,10.52,3.16,15.61l1.6,18.18,3.25,36.93,6.44,73.29,1.6,18.18,1.27-1.27a428,428,0,0,1-85.43-12.52q-20.54-5.17-40.49-12.36c-12.42-4.48-25-9.27-36.62-15.48s-22.93-14.64-28-27.27c-.49-1.21-2.56-1.21-2.49.34a1202.23,1202.23,0,0,1-3.67,165.77q-2.16,23.61-5.26,47.12l1.89-1.09c-34.39-18.55-63.61-48.51-77.75-85.29-13.54-35.22-11.13-75,7.75-107.85,10.25-17.82,25.16-32.75,43.58-42a1.24,1.24,0,0,0-.29-2.24c-27.86-4.27-56.55,3.42-79.6,19.36a115.57,115.57,0,0,0-29.62,29.55c-8.18,12-13.11,25.09-16.45,39.11-3.86,16.24-6.93,34.39-20.29,45.82l1.32-.17c-27.79-19.21-40.72-51.92-44.93-84.39a242.43,242.43,0,0,1-.94-50c1.49-19,4-39.92,17.14-54.73,11.16-12.59,27.77-18.6,44.17-20.21,18.65-1.83,36.83,2,54.58,7.49,20.34,6.28,40.21,14.44,61.26,18.16,8.79,1.56,17.5,1.51,23.53-6,2.74-3.42,4.68-7.43,6.83-11.23q3.75-6.66,7.73-13.18a451.91,451.91,0,0,1,76.26-94q5.39-5.05,10.93-10a1.23,1.23,0,0,0-.25-1.92l-79.64-43c-6.26-3.37-12.44-7.09-18.94-10-4.87-2.18-10.39-4-15.78-2.91-5.6,1.13-9.15,5.51-11.5,10.44a99.63,99.63,0,0,0-6.38,18.06c-6.59,25.82-4.28,52.93-.74,79a677.09,677.09,0,0,0,15.42,80.13,420.34,420.34,0,0,0,27.26,75.71c12.08,25.17,27.52,48.38,44.57,70.43,33.44,43.25,70.63,83.89,109.57,122.23A1322.68,1322.68,0,0,0,1692.21,1552q8.14,6.24,16.38,12.37c.93.69,1.82-.86.9-1.55Z"/><path class="cls-1" d="M564.71,1501a233.72,233.72,0,0,1,17.92-23.4c6.5-7.31,13.68-14.3,21.8-19.8a67.38,67.38,0,0,1,26.5-11,50.24,50.24,0,0,1,14.59-.29,79.82,79.82,0,0,1,15,3.71c9.89,3.29,19.5,7.13,29.92,8.43a79.38,79.38,0,0,0,31.46-2.39c9.31-2.63,18.18-6.62,27.53-9.1,8.83-2.34,18.46-3.21,26.69,1.51,7.78,4.46,12.52,12.94,14.92,21.34a50.89,50.89,0,0,1,1.14,22.06c-2.33,14.22-10.27,28.12-23,35.46-15.58,9-33.65,4.2-50,.39-8.64-2-17.52-4-26.46-3.51a41.51,41.51,0,0,0-12.52,2.48c-4.68,1.76-8.9,4.44-13.19,7a52.65,52.65,0,0,1-13.62,6,47.19,47.19,0,0,1-13.81,1.33c-9.82-.45-19.4-3.52-28.32-7.52a208.31,208.31,0,0,1-26.42-14.68c-7.7-4.89-16.54-10.43-19-19.86-1.07-4.14-.62-8.51-.66-12.74a1.12,1.12,0,0,0-2.23,0c0,4.5-.4,9.11.78,13.51a25.89,25.89,0,0,0,7.23,11.65,70.72,70.72,0,0,0,11.51,8.53c4.33,2.75,8.7,5.44,13.16,8,16.85,9.57,36.9,18.44,56.68,14.17a49.06,49.06,0,0,0,13.61-5.33c4.63-2.6,9.06-5.67,14-7.66,8.6-3.46,18-3.2,27-1.71,17.66,2.91,36.1,10.68,54.09,5.55,14.4-4.1,25-16.2,30.05-29.92,5.45-14.66,4.88-32-3.54-45.44-4.88-7.81-12.46-13.12-21.72-14.09-9.57-1-19.14,2.23-28,5.38-9.94,3.51-19.71,7.18-30.29,8.17a81.49,81.49,0,0,1-32.48-3.8c-10-3.22-19.84-7.56-30.42-8.72-9.68-1.06-19.43.91-28.33,4.72-18.31,7.84-32.48,23.15-44.08,38.91-2.93,4-5.68,8.12-8.43,12.23-.39.58.54,1.12.93.55Z"/><path class="cls-1" d="M736.09,1450.24c-5-1.82-10.52-3.57-14.67-7a15.11,15.11,0,0,1-5.17-14.29c1-5.74,4.56-10.71,7.49-15.63,3.14-5.27,5.73-10.73,6-17,.56-13.39-8.15-25.5-16.83-34.84a114.55,114.55,0,0,0-14.72-13.56c-5.07-3.82-10.87-7.08-17.15-8.35a29.51,29.51,0,0,0-16.41,1.17,22,22,0,0,0-11.76,10.52c-2.39,4.53-4.21,10.88-9.54,12.79-3.22,1.16-6.78.6-10.09.21a62.35,62.35,0,0,0-8.85-.47c-23.07.52-45.63,14.25-56.14,34.89-6.28,12.32-8.17,26.29-8.26,40-.09,14.74,1.58,29.49,2.79,44.16l1,11.84c.12,1.46,2.42,1.47,2.29,0-1.22-15-2.76-30-3.49-45-.67-13.8-.32-28,4.09-41.18a60.94,60.94,0,0,1,20.14-28.64,64.23,64.23,0,0,1,31.48-13.32,58.32,58.32,0,0,1,8.66-.46c3,.06,5.91.48,8.87.77,3.24.31,6.6.3,9.58-1.19a14.15,14.15,0,0,0,5.45-5.35c2.85-4.55,4.24-9.92,8.32-13.63s9.59-5.32,15-5.44c13.12-.29,23.88,8.66,32.74,17.34A96.43,96.43,0,0,1,720,1374c3.61,5.44,6.61,11.59,7.31,18.16.68,6.38-1.12,12.16-4.2,17.69-2.78,5-6.2,9.71-8.08,15.15a18.15,18.15,0,0,0,1.22,15.33c2.62,4.38,7.15,6.93,11.77,8.74,2.53,1,5.14,1.76,7.73,2.57.9.28,1.25-1.09.38-1.41Z"/><path class="cls-1" d="M612.93,1359.69c-9.32-2.11-18.39-5.53-27.88-6.85a78.36,78.36,0,0,0-29.68,1.9,60.89,60.89,0,0,0-25.61,13.06c-7,6.18-12.12,14.08-17,21.94-5.57,8.94-11,18.15-18.86,25.32l1.2-.15c-11.76-7.76-27.4-10-40.1-3.13a33.44,33.44,0,0,0-13.27,13,29.56,29.56,0,0,0-3.28,18.72c2,13.64,12.15,24.79,23.86,31.3,13.51,7.51,29.11,10.27,44,13.62,17.09,3.84,34.18,7.74,51.29,11.51l6.33,1.39c1.41.31,2-1.85.6-2.17-16.27-3.72-32.57-7.33-48.86-11-7.76-1.74-15.54-3.42-23.28-5.24a143.1,143.1,0,0,1-20.58-6.13c-12.58-5-24.23-13.63-29.27-26.63a28,28,0,0,1,8.78-33.36c10.83-8.71,26.1-8.84,38.24-2.81a42.23,42.23,0,0,1,4.51,2.61,1,1,0,0,0,1.2-.16c13.66-12.53,19.79-30.81,32.48-44.13,13.49-14.17,34.55-19.62,53.66-18.15,10.64.81,20.71,4.78,31.16,6.69.77.14,1.11-1,.33-1.19Z"/><path class="cls-1" d="M563.25,1501a248.51,248.51,0,0,0,29.83,29.19,235,235,0,0,0,34,23.69c12.15,6.91,25.07,12.26,38.08,17.34,13.86,5.4,28,10.21,42.66,13.07a131.54,131.54,0,0,0,23.9,2.6c7.91.08,16.15-.54,23.75-2.82a1,1,0,0,0-.53-1.93,108.14,108.14,0,0,1-21.05,2.55,121.29,121.29,0,0,1-21.53-1.82c-14.39-2.44-28.37-6.89-42-12-13.1-4.92-26.18-10.15-38.52-16.78a231,231,0,0,1-34.16-22.57,317.17,317.17,0,0,1-33.5-31.45c-.58-.62-1.47.3-.93.93Z"/><path class="cls-1" d="M564.11,1499.18a253.47,253.47,0,0,1,49.87-4.13,240.69,240.69,0,0,1,49.38,5.91c14.73,3.34,29.61,7.76,43.07,14.73,11.46,5.94,22.37,14.22,28.2,26,3.57,7.23,4.11,15.21,5.85,23,1.5,6.65,4.53,13.17,10.16,17.3a17.74,17.74,0,0,0,4.25,2.27c1.46.56,2.09-1.78.65-2.33-6.5-2.47-10.45-9.18-12.18-15.59-2.11-7.83-2.43-16-5.64-23.55-5.16-12.11-15.64-21-26.9-27.24-13-7.24-27.44-11.79-41.78-15.32a243,243,0,0,0-49.55-6.87,215.81,215.81,0,0,0-49.59,3.58q-3,.6-6.06,1.25c-.66.14-.38,1.12.27,1Z"/><path class="cls-1" d="M470.35,1407.46a49.08,49.08,0,0,1,2.36-22A101.69,101.69,0,0,1,483,1364.61c4.26-6.89,8.84-13.58,13.38-20.28s9.14-13.68,14-20.26a28.11,28.11,0,0,1,7.41-7.34,17,17,0,0,1,10-2.39c7.41.41,14,4.49,19.54,9.08s10.84,10.33,17.32,13.85a12.24,12.24,0,0,0,10,1c3.36-1.1,6.4-2.93,9.88-3.73a23.83,23.83,0,0,1,19.44,3.89,21.15,21.15,0,0,1,8.24,16.46,19,19,0,0,1-.6,4.74,1.12,1.12,0,0,0,2.16.59,22.74,22.74,0,0,0-3.72-18.66,24.12,24.12,0,0,0-16.94-9.66,26.7,26.7,0,0,0-10.48.87c-3.61,1-6.86,3.3-10.59,3.93-4,.68-7.54-1.84-10.6-4.11-3.26-2.43-6.26-5.18-9.3-7.86-5.68-5-11.71-9.81-19.15-11.81-7.06-1.89-14.17-.67-19.65,4.29a49.21,49.21,0,0,0-6.89,8.34q-3.84,5.46-7.6,11c-5,7.23-9.9,14.5-14.69,21.85-8.42,12.93-17,27.72-16.4,43.69a36.63,36.63,0,0,0,.66,5.64c.2,1,1.93.79,1.8-.24Z"/><path class="cls-1" d="M608.71,1341.75a69.23,69.23,0,0,1,26-2.07,61,61,0,0,1,12.71,3c3.24,1.13,7,2.39,7.63,6.23.24,1.44,2.44.83,2.2-.61a8.3,8.3,0,0,0-4.74-6,43.76,43.76,0,0,0-9.84-3.34,65,65,0,0,0-22.2-1.39,54.29,54.29,0,0,0-12.19,2.72.76.76,0,0,0,.41,1.47Z"/><path class="cls-1" d="M455,1414.71c18.18,5.84,35.45,14.26,51.86,24q12.31,7.26,24,15.57,5.63,4,11.08,8.23a108.6,108.6,0,0,1,10.53,9c7,7.1,12.39,17.22,8.81,27.31-.54,1.53,1.85,2.15,2.41.67,3.32-8.75-.16-18.44-5.66-25.46-5.76-7.35-13.73-13-21.2-18.41a315.44,315.44,0,0,0-51.17-30.7,210.74,210.74,0,0,0-30.19-11.74.82.82,0,0,0-.44,1.58Z"/><path class="cls-1" d="M565.74,1497.05c-12.57,16.32-24.79,32.92-36.26,50A523.61,523.61,0,0,0,498,1600a340.78,340.78,0,0,0-22.93,56,312.29,312.29,0,0,0-11.82,64.45c-1.9,22.73-2,45.56-1.86,68.36q0,4.2.05,8.4a1.13,1.13,0,0,0,2.26,0c-.15-22.61-.3-45.24,1.13-67.81,1.41-22.13,4.43-44.17,10.29-65.58A325.14,325.14,0,0,1,497,1606.92a492.27,492.27,0,0,1,30.45-52.85c11.19-17.1,23.21-33.62,35.4-50l4.52-6.06c.73-1-.89-1.88-1.62-.94Z"/><path class="cls-1" d="M1754.31,576.62c-20.64-19.5-44.68-34.62-68.63-49.67s-48.22-30.21-68.79-49.84a187.71,187.71,0,0,1-28.22-34.25c-8.5-13.23-15.65-27.27-22.88-41.22s-14.6-27.91-23.46-40.92a243.75,243.75,0,0,0-26.52-32.07c-19.49-20.11-41.4-37.64-62.28-56.25-20.6-18.36-40.5-38-55-61.73-6.39-10.45-12.51-23.75-9.56-36.31a18.94,18.94,0,0,1,11.87-13.73c6.73-2.43,14.33-1.3,20.83,1.32,7.28,2.93,13.54,8,19.75,12.67a106.63,106.63,0,0,0,18.51,11.6c12.22,5.81,25.36,9.34,37.65,15s23.14,13.86,29.22,26.35,7.07,27.05,7.23,40.84c.17,14.84-.63,29.66,1,44.45a180.87,180.87,0,0,0,11.51,46.55,182.81,182.81,0,0,0,10.08,21.38l2-2c-14.4-9.15-25.17-22.57-35.79-35.68-10.91-13.48-22.1-26.32-36.53-36.17a213.32,213.32,0,0,0-25-14.31c-8.21-4.11-16.49-8.18-25-11.68-15-6.19-33.58-11.27-48.53-2.23s-19.11,27.6-17.56,43.77c1,10.11,3.72,19.93,6.31,29.73l8.18,31c2.11,8,4,15.9,7.68,23.34,2.9,5.95,6.85,11.9,12.53,15.52a18.52,18.52,0,0,0,18.28.92c7-3.43,11.47-10.34,16.39-16.08,21.4-25,57.21-26.18,87.6-24.57,3.94.21,7.88.48,11.82.78l-.42-3.06a294.84,294.84,0,0,0-50.89,11.59q-12.19,3.95-24,9a119.3,119.3,0,0,0-20.46,10.64c-11.81,8-21.31,19.87-22.42,34.54a30,30,0,0,0,4.76,18.92,40.47,40.47,0,0,0,13.12,11.91c11.07,6.66,23.84,10.13,34.38,17.73,12.15,8.77,20.47,21.62,31.29,31.8,8.94,8.4,19.89,14.08,32.37,14.25,11.29.15,22.12-5.24,25.55-16.6,2.29-7.62,1.45-16.18.82-24-.67-8.38-1.86-16.71-3.34-25-3-17-7.32-33.78-10.87-50.7-1.77-8.43-3.36-16.91-4.51-25.46q-.87-6.44-1.36-12.93c-.29-3.86-.76-7.95-.17-11.81.53-3.5,2.32-6.89,6.06-7.67s7.42,1.06,10.43,2.88a75.81,75.81,0,0,1,9.27,7.19l9.2,7.73c23.37,19.5,48.95,39.21,79.93,43.72,13.49,2,27.62,1.25,40.44-3.63,12.13-4.62,26.14-13.93,29.28-27.39,1.79-7.7-1.34-15-4.61-21.83a132.55,132.55,0,0,0-12.19-20.47,134.53,134.53,0,0,0-15.62-18c-5.36-5.16-11.48-9.81-19.17-10.32-7.94-.52-15.51,3.15-22.33,6.75A212.57,212.57,0,0,1,1631,343.54a168.72,168.72,0,0,1-48.65,10.89,170.53,170.53,0,0,1-24.24,0l.4,3L1610.64,343l25.78-7.09c7.1-1.95,14.38-4,20.62-8.06,11.75-7.61,15.8-21,17.41-34.22a218.67,218.67,0,0,0,1.39-40.44c-.83-12.6-3.38-25.58-10.27-36.37-7.45-11.66-19.28-18.59-32.4-22.21a173.7,173.7,0,0,0-22-4.17c-6.69-1-13.51-1.41-18,4.61-4.1,5.55-4.82,13.34-6.13,19.89q-2.64,13.17-5,26.39-9.3,52-14.22,104.76-.62,6.57-1.16,13.16c-.17,2.08,3,2,3.23,0,2.35-24,13.06-46,19.23-69.05a132.82,132.82,0,0,0,2.27-59.35A139.41,139.41,0,0,0,1569,177.45a133.14,133.14,0,0,0-19-21.85,128,128,0,0,0-11.14-9.12c-3.76-2.74-8.32-6.53-13.29-6.07-5.6.51-7.28,6.28-8.54,10.84-1.68,6.08-3.25,12.19-4.61,18.36-2.58,11.76-4.26,23.69-5.75,35.63-.27,2.1,3,2.08,3.29,0,1.3-10.35,2.68-20.68,4.75-30.91q1.5-7.41,3.39-14.73c.64-2.51,1.31-5,2-7.51s1.21-5.35,3-7.2c3.91-4,10.32,1.55,13.63,3.94a118.67,118.67,0,0,1,11,9,128.5,128.5,0,0,1,18.51,21.22c21.61,31,29.8,70.54,20.67,107.34-6.08,24.51-17.67,47.53-20.19,72.9H1570Q1574.19,309,1582.35,259q4.08-24.83,9.15-49.47c1.17-5.69,2.47-13.79,8.78-16,3.64-1.28,7.8-.34,11.49.19,3.4.49,6.79,1,10.17,1.63,13.43,2.47,27,6.78,36.39,17.19,8.27,9.14,12.07,21.33,13.63,33.33,1.63,12.53,1.1,25.26.22,37.83s-2.12,27.12-11.22,36.82c-5,5.37-11.91,8.3-18.81,10.46-7.64,2.4-15.44,4.36-23.16,6.5l-49.2,13.58-12.09,3.34a1.53,1.53,0,0,0,.41,3,171.09,171.09,0,0,0,91.56-19.12c7.2-3.79,14.67-8.56,23-9.23s14.89,4.12,20.63,9.69a132,132,0,0,1,27,37.62c3.48,7.27,6.52,14.91,3.22,22.82-2.77,6.66-8.42,11.9-14.3,15.85-11.24,7.56-24.81,10.72-38.23,10.65-30.45-.14-56.84-16.44-79.93-34.82-6.08-4.83-12-9.83-18-14.83-5.37-4.52-10.68-9.76-17.45-12.12-5.81-2-12.19-.41-14.69,5.63a22.52,22.52,0,0,0-1.28,9.18c.11,4,.43,8.09.83,12.11,3.3,33.09,14.11,64.83,18.45,97.75a171.11,171.11,0,0,1,1.75,24.45c-.09,6.84-1.46,13.83-6.7,18.63-8.19,7.49-21.23,6.54-30.94,3-12.74-4.63-21.55-15.66-30.25-25.52-4.8-5.44-9.7-10.86-15.38-15.4a80.26,80.26,0,0,0-16.26-9.76c-10.69-5-23-9.09-30.94-18.37-9.4-11.07-7.33-26.74.39-38.12,8.49-12.54,23.09-19.53,36.66-25.12a292.34,292.34,0,0,1,48.26-15.14q11.88-2.62,23.93-4.26c1.84-.26,1.22-2.94-.41-3.07-15.47-1.17-31.08-1.93-46.55-.35-14.57,1.49-29.29,5.11-41.66,13.24a71.43,71.43,0,0,0-16.06,15c-4.55,5.57-9.52,12.22-17,13.73-14.49,2.91-22.74-14.85-26.34-25.9-2.87-8.83-4.89-18-7.26-27-2.6-9.83-5.33-19.64-7.73-29.52-4.1-16.88-6.43-37.11,5.65-51.48,11.68-13.9,30.54-11.91,46-6.61,8.41,2.88,16.42,6.77,24.42,10.6,8.32,4,16.59,8.13,24.51,12.88a130,130,0,0,1,21.79,16.09,186.86,186.86,0,0,1,16.51,17.94c10.23,12.36,19.87,25.46,32.29,35.77a92.38,92.38,0,0,0,9.5,6.94c1.29.82,2.71-.77,2-2a179.16,179.16,0,0,1-17.93-46.95c-3.57-15.7-4.55-31.51-4.43-47.57.19-27,1.2-58.33-22.3-76.75-10.54-8.27-23.45-12.63-35.88-17.17a181.51,181.51,0,0,1-19.62-8.11c-6.81-3.44-12.84-7.94-18.91-12.51-11.14-8.4-25.47-17.45-40-12.21a21.42,21.42,0,0,0-12.51,11.8c-2.3,5.46-2.37,11.53-1.46,17.3,2.08,13.23,9.5,24.92,17.13,35.63a253.61,253.61,0,0,0,27.33,31.85c20.16,20.2,42.59,37.91,63.69,57.09a362.69,362.69,0,0,1,29.93,30.05,232.86,232.86,0,0,1,26.1,36.84c16,27.66,28.16,57.71,48.39,82.73,18,22.21,41.31,39.22,65.14,54.63,24.38,15.78,49.6,30.27,72.75,47.89q8.63,6.57,16.68,13.83c.68.62,1.69-.38,1-1Z"/><path class="cls-1" d="M1557.11,376.79c-21-1.42-41.83-6.13-61-15-16.49-7.61-33.75-18.45-41.8-35.45-3.61-7.61-4.83-16.75-1.79-24.76a17.65,17.65,0,0,1,7.7-9.43,13.67,13.67,0,0,1,11.83-.3,24.27,24.27,0,0,1,9.92,8.23,38.61,38.61,0,0,1,5.69,13.22c2.52,9.7,3.64,19.73,8.75,28.55,8.81,15.21,24.95,24.34,40.25,31.85q2.86,1.39,5.74,2.76a1.43,1.43,0,0,0,1.44-2.47l-25.12-17.18c-8.09-5.53-16.08-11.24-24.32-16.54-7.14-4.59-15.18-8.83-23.86-9.14-6.73-.24-13.89,2.13-18.68,7-5.59,5.65-6.22,13.7-3.21,20.82a38,38,0,0,0,7,10.61,29.65,29.65,0,0,0,9.75,7.35,14.89,14.89,0,0,0,11.23.73,16.65,16.65,0,0,0,7-5.33c3.82-4.77,6-11,10.8-15,6.83-5.71,16.5-1.67,23.52,1.5a120.12,120.12,0,0,1,23,13.62q2.65,2,5.19,4.17a1.4,1.4,0,0,0,2-2c-12-13.5-20.76-29.5-27.26-46.26-6.63-17.07-11.09-34.88-14.94-52.74-1-4.54-1.92-9.09-2.85-13.64-.76-3.75-1.12-8.05-3.41-11.26-2.11-2.94-6.18-3.86-8.66-.76s-2.13,7.42-1.8,11a32.44,32.44,0,0,0,3.58,12.6,25.56,25.56,0,0,0,9.19,9.34c3.94,2.49,7.93,4.65,11.06,8.2a47,47,0,0,1,7,11.44c4.4,9.49,8.16,19.33,11.9,29.09q5.82,15.14,11,30.49,1.28,3.78,2.5,7.58l2.67-1.13a149.7,149.7,0,0,1-20.14-88.29,99.51,99.51,0,0,1,1.37-10.88c.54-2.68,1.42-6,3.92-7.52,5.57-3.41,10,4.72,11.48,8.89a103.9,103.9,0,0,1,3,11.57q1.39,6.12,2.45,12.3a237.37,237.37,0,0,1,3,25.21,240.34,240.34,0,0,1-2,50.36c-.31,2.1-.65,4.21-1,6.3l2.5-.66c-8.83-10.37-18.28-21.22-30.78-27.25a44.68,44.68,0,0,0-11-3.67c-.72-.14-1.74.19-1.86,1.05a25.38,25.38,0,0,0,5.45,19.57c1.2,1.49,3.29-.62,2.1-2.1a22.19,22.19,0,0,1-4.64-16.67l-1.85,1.05c13.35,2.57,23.84,11.77,32.8,21.48,2.6,2.83,5.12,5.74,7.61,8.66a1.51,1.51,0,0,0,2.51-.66,244.75,244.75,0,0,0,3.36-53,238.7,238.7,0,0,0-8.18-52.44c-1.5-5.4-5.07-12.91-11.39-13.69-7.37-.91-9.92,7.18-10.75,12.91a152.26,152.26,0,0,0,16.55,93.68q1.44,2.65,3,5.25c.82,1.39,3.2.48,2.67-1.13Q1538.4,339,1526.24,310c-3.4-8.12-6.72-16.92-13.35-23-3.34-3.07-7.43-5-11.13-7.56a21.35,21.35,0,0,1-7.83-9.91,33.68,33.68,0,0,1-2.13-12.45,9.59,9.59,0,0,1,1-4.86,2.33,2.33,0,0,1,3.48-.88c2.84,2.13,3.09,7.09,3.72,10.24.89,4.35,1.78,8.69,2.71,13,3.72,17.42,8,34.79,14.19,51.51,6.06,16.32,14,32,25,45.58,1.35,1.68,2.75,3.33,4.18,4.95l2-2a121.18,121.18,0,0,0-32.84-20.05,34,34,0,0,0-12.28-3,15.83,15.83,0,0,0-10.21,3.4,27.36,27.36,0,0,0-5.66,6.74c-3,4.6-5.58,10.69-10.94,13-7.56,3.19-15.3-3.36-19.76-8.8-4.77-5.81-8.92-14.22-5.36-21.65,2.82-5.88,9.28-9.23,15.53-10,8-1.05,15.77,2.22,22.52,6.16,8,4.64,15.45,10.2,23.07,15.4l24.3,16.61,6,4.08,1.44-2.47c-16-7.57-33.53-16-43.56-31.26a47.68,47.68,0,0,1-5.88-12.88c-1.54-5.26-2.45-10.66-3.78-16-1.22-4.89-2.79-9.82-5.59-14.06a29,29,0,0,0-9.55-9.23,17.81,17.81,0,0,0-12.46-2.29,17.14,17.14,0,0,0-10.17,7c-5.19,7.22-5.71,17.07-3.45,25.43,2.38,8.79,7.84,16.49,14.23,22.85a95.94,95.94,0,0,0,23.3,16.59,162.83,162.83,0,0,0,30,12.11,143.29,143.29,0,0,0,32.06,5.81c2.69.15,5.38.22,8.07.24a.79.79,0,0,0,0-1.58Z"/><path class="cls-1" d="M1541.73,383.31c-1.67,5.57-.9,11.41.64,16.92,1.62,5.81,3.77,11.45,5.25,17.31,3,11.79,4.33,23.91,5.82,36,2.64,21.32,6,43.87,19,61.68,5.15,7.05,15.56,18.45,24.71,10.45,3.25-2.83,4.68-7.36,5.46-11.46,1.1-5.74,1.55-11.65,2.11-17.46,1.22-12.79,1.89-25.61,2.37-38.45.25-6.41.44-12.83.64-19.25a118,118,0,0,0-.24-14.93A43.21,43.21,0,0,0,1604,410a27.93,27.93,0,0,0-8.63-10.53,110.44,110.44,0,0,0-10.75-6.72c-3.39-2-6.86-4.19-9.33-7.32a14.92,14.92,0,0,1-2.63-4.76c-.56-1.86-3.49-1.07-2.93.81a17,17,0,0,0,2.41,5.26,23.24,23.24,0,0,0,4,4.21,71.73,71.73,0,0,0,9.93,6.48,49.88,49.88,0,0,1,10,6.92,25.57,25.57,0,0,1,6.61,11.42c2.83,9.69,1.87,20.18,1.56,30.13-.39,12.34-.85,24.69-1.69,37-.42,6.16-.93,12.31-1.58,18.44-.55,5.11-.86,10.44-2.36,15.38-1.07,3.55-3.15,7.45-7.17,8.11-5.16.85-9.72-3.78-12.79-7.28-13.78-15.68-18.32-37.17-21.12-57.27-1.61-11.55-2.74-23.19-5-34.64a134.21,134.21,0,0,0-4.47-16.95c-1.84-5.4-4.06-10.76-4.93-16.43a23.68,23.68,0,0,1,.18-8.56.77.77,0,0,0-1.49-.42Z"/></g></svg>