<svg xmlns="http://www.w3.org/2000/svg" viewBox="0 0 512 512"><defs><style>.cls-1{fill:#533d30;}</style></defs><title>Слой 3</title><g id="Слой_2" data-name="Слой 2"><g id="Слой_3" data-name="Слой 3"><path class="cls-1" d="M373.41,0H138.59C62.17,0,0,62.17,0,138.59V373.41C0,449.83,62.17,512,138.59,512H373.41C449.83,512,512,449.83,512,373.41V138.59C512,62.17,449.83,0,373.41,0ZM482,373.41A108.69,108.69,0,0,1,373.41,482H138.59A108.69,108.69,0,0,1,30,373.41V138.59A108.69,108.69,0,0,1,138.59,30H373.41A108.69,108.69,0,0,1,482,138.59Z"/><path class="cls-1" d="M219.15,248.27q24.66-10.72,24.67-46.13,0-51.07-58.33-51.07h-56a20.83,20.83,0,0,0-11.6,3.19A9.87,9.87,0,0,0,113,163V351.57q0,4.64,4.65,8.12t11.89,3.48H191q26.69,0,42.36-14.65T249,301.66v-6.09q0-20.31-7.55-30.91T219.15,248.27Zm-68.77-64.12h32.21q11,0,17.27,6.53t6.23,17.84q0,11.61-6,18.28t-17.26,6.67h-32.5Zm60.94,114.32q0,31.62-28.15,31.63H150.38v-67h32.79q13.94,0,21,7.25t7.11,23.51Z"/><path class="cls-1" d="M381.64,304a68.51,68.51,0,0,0,9.86-.57,27.86,27.86,0,0,0,8.27-2.88,14.16,14.16,0,0,0,6.68-7.9,39.71,39.71,0,0,0,2.17-14.22q0-23.61-17.55-39.21t-42.22-15.59q-26.4,0-45,17.12T285.3,281.64V306.3q0,26.7,19.59,43.09t50.63,16.4q21.76,0,36.42-8t14.65-16.1q0-5.22-4.06-10.88t-10.15-5.66q-3.21,0-13.93,5.52a47.26,47.26,0,0,1-21.77,5.51q-15.37,0-24.66-7.69t-9.28-20.17V304Zm-58.9-29.64A18.41,18.41,0,0,1,330.28,259,28.15,28.15,0,0,1,348,253.2q10.72,0,18.14,6a19,19,0,0,1,7.4,15.45c0,2.89-.64,4.84-1.89,5.83s-3.44,1.49-6.53,1.49H322.74Z"/><path class="cls-1" d="M394.39,177.86H300.52a15,15,0,0,0,0,30h93.87a15,15,0,0,0,0-30Z"/></g></g></svg>