<svg xmlns="http://www.w3.org/2000/svg" viewBox="0 0 511.98 512"><defs><style>.cls-1{fill:#533d30;}</style></defs><title>Capa 1</title><g id="Слой_2" data-name="Слой 2"><g id="Capa_1" data-name="Capa 1"><path class="cls-1" d="M498.82,377.63,435.17,314a45.07,45.07,0,0,0-63.65,0l-28.93,28.94a34.14,34.14,0,0,1-48.22,0L169,217.41a34.09,34.09,0,0,1,0-48.22l28.93-28.93a45,45,0,0,0,0-63.66L134.25,13.17a45,45,0,0,0-63.6-.05l-23.19,23c-63.28,63.28-63.28,166.24,0,229.52l198.69,198.8a162.21,162.21,0,0,0,229.52,0l23.15-23.15A45.07,45.07,0,0,0,498.82,377.63ZM91.82,34.38a15,15,0,0,1,21.24,0l63.63,63.43a15,15,0,0,1,0,21.22l-10.61,10.6L81.27,44.84ZM267.37,443.21,68.68,244.41a131.89,131.89,0,0,1-8.28-178L145,151a64,64,0,0,0,2.79,87.66l125.4,125.5h0a64,64,0,0,0,87.66,2.79l84.56,84.57A131.63,131.63,0,0,1,267.37,443.21ZM477.6,420.07,467,430.67l-84.86-84.86,10.6-10.61a15,15,0,0,1,21.22,0l63.65,63.65A15,15,0,0,1,477.6,420.07Z"/></g></g></svg>