<svg xmlns="http://www.w3.org/2000/svg" viewBox="0 0 512 391.18"><defs><style>.cls-1{fill:#533d30;}</style></defs><title>Слой 2</title><g id="Слой_2" data-name="Слой 2"><g id="Слой_2-2" data-name="Слой 2"><path class="cls-1" d="M507.77,6.79a18.53,18.53,0,0,0-20.72-5.65L17.39,170.86a26.33,26.33,0,0,0-5.91,46.5l67.13,45.83a21.14,21.14,0,0,0,21.84,1.24l145.62-76.79L132.58,272.39a21.28,21.28,0,0,0-8.52,17v78.5a22,22,0,0,0,34.2,18.35l51-33.83,50.15,34.2a26.47,26.47,0,0,0,14.91,4.6,26.12,26.12,0,0,0,5.35-.55,26.68,26.68,0,0,0,17.09-11.94L509.26,28.31A18.58,18.58,0,0,0,507.77,6.79ZM273.21,359.66l-51.94-35.42a21.05,21.05,0,0,0-23.65-.15L154.08,353V293.79L354.49,144.15a21.19,21.19,0,0,0-22.56-35.72L91.15,235.4,34.37,196.64,466.86,40.35Z"/></g></g></svg>